<svg width="120" height="283" viewBox="0 0 120 283" fill="none" xmlns="http://www.w3.org/2000/svg">
<g clip-path="url(#clip0_322_2569)">
<path d="M14.4979 274.281C16.0231 276.484 18.1838 277.586 20.98 277.586H21.2342C23.6067 277.586 25.9793 275.044 28.3518 269.96C30.7243 264.876 32.9274 257.928 34.961 249.116C36.9946 240.303 38.9011 231.449 40.6805 222.552C42.4599 213.655 44.2393 204.038 46.0187 193.7C46.2729 191.921 46.4847 190.607 46.6542 189.76C52.755 153.748 59.3641 120.363 66.4817 89.6053C73.5993 58.8472 78.768 38.8502 81.9879 29.6142C82.4963 28.089 82.92 26.818 83.2589 25.8013C83.5978 24.7845 84.3181 22.9203 85.4196 20.2089C86.5211 17.4974 87.665 15.1249 88.8513 13.0913C90.0376 11.0577 91.478 8.98171 93.1727 6.86338C94.8673 4.74505 96.7315 3.05039 98.7651 1.77939C100.799 0.508393 102.959 -0.0847389 105.247 -5.66244e-06C109.992 -5.66244e-06 113.551 1.48283 115.924 4.44849C118.296 7.41415 119.652 10.8035 119.991 14.6165C119.991 16.7348 119.482 18.4295 118.466 19.7005C117.449 20.9715 116.474 21.7764 115.542 22.1154C114.61 22.4543 113.678 22.5814 112.746 22.4967C110.967 22.4967 109.357 21.8612 107.916 20.5902C106.476 19.3192 105.756 17.5821 105.756 15.3791C105.756 11.3119 108.001 8.89698 112.492 8.13438L112.111 7.62598C111.856 7.37178 111.517 7.07522 111.094 6.73628C110.67 6.39735 110.331 6.14315 110.077 5.97368C108.806 5.12635 107.408 4.70269 105.883 4.70269C104.696 4.70269 103.595 5.21109 102.578 6.22788C101.561 7.24468 100.206 9.61721 98.5109 13.3455C96.8162 17.0737 95.1639 21.9883 93.554 28.089C91.9441 34.1898 89.9528 42.7903 87.5803 53.8903C85.2078 64.9903 82.8352 78.0393 80.4627 93.037C75.4634 121.423 70.2524 148.241 64.8294 173.491C59.4065 198.742 55.1698 217.044 52.1195 228.398C49.0691 239.753 46.7389 247.887 45.129 252.801C38.6045 272.544 30.5549 282.416 20.98 282.416C17.5907 282.416 14.4979 281.102 11.7017 278.476C8.90552 275.849 7.33796 272.248 6.99902 267.672C6.99902 264.706 7.80399 262.673 9.41392 261.571C11.0239 260.47 12.6338 259.919 14.2437 259.919C16.0231 259.919 17.633 260.555 19.0735 261.826C20.514 263.097 21.2342 264.834 21.2342 267.037C21.2342 271.104 18.9888 273.519 14.4979 274.281Z" fill="black"/>
</g>
<defs>
<clipPath id="clip0_322_2569">
<rect width="120" height="282.416" fill="white"/>
</clipPath>
</defs>
</svg>
